<svg width="75" height="64" viewBox="0 0 75 64" fill="none" xmlns="http://www.w3.org/2000/svg">
<rect width="75" height="64" rx="6" fill="black"/>
<path d="M23.112 41V24.2H30.528C31.68 24.2 32.656 24.368 33.456 24.704C34.256 25.024 34.856 25.496 35.256 26.12C35.672 26.728 35.88 27.464 35.88 28.328C35.88 29.288 35.64 30.096 35.16 30.752C34.696 31.408 34.016 31.848 33.12 32.072L33.072 31.616C33.824 31.776 34.472 32.056 35.016 32.456C35.576 32.856 36.008 33.352 36.312 33.944C36.616 34.52 36.768 35.176 36.768 35.912C36.768 36.76 36.624 37.504 36.336 38.144C36.048 38.768 35.632 39.296 35.088 39.728C34.544 40.16 33.904 40.48 33.168 40.688C32.448 40.896 31.648 41 30.768 41H23.112ZM26.952 37.592H30.624C31.072 37.592 31.448 37.52 31.752 37.376C32.072 37.232 32.32 37.024 32.496 36.752C32.672 36.464 32.76 36.12 32.76 35.72C32.76 35.352 32.664 35.04 32.472 34.784C32.296 34.528 32.04 34.336 31.704 34.208C31.368 34.064 30.968 33.992 30.504 33.992H26.952V37.592ZM26.952 30.944H29.952C30.368 30.944 30.72 30.88 31.008 30.752C31.312 30.608 31.536 30.416 31.68 30.176C31.84 29.92 31.92 29.616 31.92 29.264C31.92 28.752 31.744 28.352 31.392 28.064C31.04 27.76 30.512 27.608 29.808 27.608H26.952V30.944ZM43.7216 41V32.624L43.8896 33.8L37.0976 24.2H41.7296L46.9136 31.64L44.8016 31.568L49.4816 24.2H53.9696L47.4656 34.064L47.8256 32.432V41H43.7216Z" fill="white"/>
</svg>
