<svg width="284" height="80" viewBox="0 0 284 80" fill="none" xmlns="http://www.w3.org/2000/svg">
<path d="M95.632 64V19.2H106.512V64H95.632ZM100.688 46.848V37.76H123.856V46.848H100.688ZM100.688 28.8V19.2H126.48V28.8H100.688ZM145.713 64.576C142.854 64.576 140.294 63.8293 138.033 62.336C135.814 60.8 134.044 58.7093 132.721 56.064C131.398 53.376 130.737 50.3467 130.737 46.976C130.737 43.52 131.398 40.4693 132.721 37.824C134.044 35.1787 135.857 33.1093 138.161 31.616C140.465 30.08 143.089 29.312 146.033 29.312C147.654 29.312 149.126 29.5467 150.449 30.016C151.814 30.4853 153.009 31.1467 154.033 32C155.057 32.8107 155.932 33.7707 156.657 34.88C157.382 35.9467 157.916 37.0987 158.257 38.336L156.145 38.08V30.016H166.321V64H155.953V55.808L158.257 55.744C157.916 56.9387 157.361 58.0693 156.593 59.136C155.825 60.2027 154.886 61.1413 153.777 61.952C152.668 62.7627 151.43 63.4027 150.065 63.872C148.7 64.3413 147.249 64.576 145.713 64.576ZM148.529 55.936C150.108 55.936 151.473 55.5733 152.625 54.848C153.777 54.1227 154.673 53.0987 155.313 51.776C155.953 50.4107 156.273 48.8107 156.273 46.976C156.273 45.1413 155.953 43.5627 155.313 42.24C154.673 40.8747 153.777 39.8293 152.625 39.104C151.473 38.336 150.108 37.952 148.529 37.952C146.993 37.952 145.649 38.336 144.497 39.104C143.388 39.8293 142.513 40.8747 141.873 42.24C141.233 43.5627 140.913 45.1413 140.913 46.976C140.913 48.8107 141.233 50.4107 141.873 51.776C142.513 53.0987 143.388 54.1227 144.497 54.848C145.649 55.5733 146.993 55.936 148.529 55.936ZM186.316 64.704C183.798 64.704 181.644 64.1707 179.852 63.104C178.102 61.9947 176.737 60.416 175.756 58.368C174.817 56.32 174.348 53.8667 174.348 51.008V30.016H184.652V49.6C184.652 50.9653 184.865 52.1387 185.292 53.12C185.718 54.1013 186.358 54.8693 187.212 55.424C188.065 55.936 189.089 56.192 190.284 56.192C191.18 56.192 191.99 56.0427 192.716 55.744C193.484 55.4453 194.124 55.04 194.636 54.528C195.19 53.9733 195.617 53.3547 195.916 52.672C196.214 51.9467 196.364 51.1573 196.364 50.304V30.016H206.668V64H197.004L196.556 57.024L198.476 56.256C197.964 57.8773 197.11 59.328 195.916 60.608C194.721 61.8453 193.292 62.848 191.628 63.616C189.964 64.3413 188.193 64.704 186.316 64.704ZM214.45 64V58.112L232.498 34.944V38.336H214.45V30.016H242.61V36.16L225.522 58.624L225.266 55.68H243.186V64H214.45ZM266.549 64.64C262.794 64.64 259.53 63.8933 256.757 62.4C253.983 60.864 251.829 58.7947 250.293 56.192C248.757 53.5467 247.989 50.5387 247.989 47.168C247.989 44.5653 248.415 42.176 249.269 40C250.122 37.824 251.317 35.9467 252.853 34.368C254.389 32.7467 256.202 31.5093 258.293 30.656C260.426 29.76 262.751 29.312 265.269 29.312C267.658 29.312 269.834 29.7387 271.797 30.592C273.802 31.4453 275.53 32.64 276.981 34.176C278.431 35.712 279.541 37.5253 280.309 39.616C281.077 41.7067 281.418 43.9893 281.333 46.464L281.269 49.216H254.197L252.725 43.456H272.949L271.861 44.672V43.392C271.775 42.3253 271.434 41.3867 270.837 40.576C270.282 39.7227 269.535 39.0613 268.597 38.592C267.658 38.1227 266.591 37.888 265.397 37.888C263.733 37.888 262.303 38.2293 261.109 38.912C259.957 39.552 259.082 40.512 258.485 41.792C257.887 43.0293 257.589 44.5653 257.589 46.4C257.589 48.2773 257.973 49.92 258.741 51.328C259.551 52.6933 260.703 53.76 262.197 54.528C263.733 55.296 265.546 55.68 267.637 55.68C269.087 55.68 270.367 55.4667 271.477 55.04C272.629 54.6133 273.866 53.888 275.189 52.864L279.989 59.648C278.666 60.8 277.258 61.7387 275.765 62.464C274.271 63.1893 272.735 63.7227 271.157 64.064C269.621 64.448 268.085 64.64 266.549 64.64Z" fill="black"/>
<rect y="13" width="75" height="64" rx="6" fill="black"/>
<path d="M23.112 54V37.2H30.528C31.68 37.2 32.656 37.368 33.456 37.704C34.256 38.024 34.856 38.496 35.256 39.12C35.672 39.728 35.88 40.464 35.88 41.328C35.88 42.288 35.64 43.096 35.16 43.752C34.696 44.408 34.016 44.848 33.12 45.072L33.072 44.616C33.824 44.776 34.472 45.056 35.016 45.456C35.576 45.856 36.008 46.352 36.312 46.944C36.616 47.52 36.768 48.176 36.768 48.912C36.768 49.76 36.624 50.504 36.336 51.144C36.048 51.768 35.632 52.296 35.088 52.728C34.544 53.16 33.904 53.48 33.168 53.688C32.448 53.896 31.648 54 30.768 54H23.112ZM26.952 50.592H30.624C31.072 50.592 31.448 50.52 31.752 50.376C32.072 50.232 32.32 50.024 32.496 49.752C32.672 49.464 32.76 49.12 32.76 48.72C32.76 48.352 32.664 48.04 32.472 47.784C32.296 47.528 32.04 47.336 31.704 47.208C31.368 47.064 30.968 46.992 30.504 46.992H26.952V50.592ZM26.952 43.944H29.952C30.368 43.944 30.72 43.88 31.008 43.752C31.312 43.608 31.536 43.416 31.68 43.176C31.84 42.92 31.92 42.616 31.92 42.264C31.92 41.752 31.744 41.352 31.392 41.064C31.04 40.76 30.512 40.608 29.808 40.608H26.952V43.944ZM43.7216 54V45.624L43.8896 46.8L37.0976 37.2H41.7296L46.9136 44.64L44.8016 44.568L49.4816 37.2H53.9696L47.4656 47.064L47.8256 45.432V54H43.7216Z" fill="white"/>
</svg>
