<svg width="252" height="80" viewBox="0 0 252 80" fill="none" xmlns="http://www.w3.org/2000/svg">
<path d="M95.632 64V19.2H115.408C118.48 19.2 121.083 19.648 123.216 20.544C125.349 21.3973 126.949 22.656 128.016 24.32C129.125 25.9413 129.68 27.904 129.68 30.208C129.68 32.768 129.04 34.9227 127.76 36.672C126.523 38.4213 124.709 39.5947 122.32 40.192L122.192 38.976C124.197 39.4027 125.925 40.1493 127.376 41.216C128.869 42.2827 130.021 43.6053 130.832 45.184C131.643 46.72 132.048 48.4693 132.048 50.432C132.048 52.6933 131.664 54.6773 130.896 56.384C130.128 58.048 129.019 59.456 127.568 60.608C126.117 61.76 124.411 62.6133 122.448 63.168C120.528 63.7227 118.395 64 116.048 64H95.632ZM105.872 54.912H115.664C116.859 54.912 117.861 54.72 118.672 54.336C119.525 53.952 120.187 53.3973 120.656 52.672C121.125 51.904 121.36 50.9867 121.36 49.92C121.36 48.9387 121.104 48.1067 120.592 47.424C120.123 46.7413 119.44 46.2293 118.544 45.888C117.648 45.504 116.581 45.312 115.344 45.312H105.872V54.912ZM105.872 37.184H113.872C114.981 37.184 115.92 37.0133 116.688 36.672C117.499 36.288 118.096 35.776 118.48 35.136C118.907 34.4533 119.12 33.6427 119.12 32.704C119.12 31.3387 118.651 30.272 117.712 29.504C116.773 28.6933 115.365 28.288 113.488 28.288H105.872V37.184ZM151.901 64.576C149.042 64.576 146.482 63.8293 144.22 62.336C142.002 60.8 140.231 58.7093 138.909 56.064C137.586 53.376 136.924 50.3467 136.924 46.976C136.924 43.52 137.586 40.4693 138.909 37.824C140.231 35.1787 142.045 33.1093 144.349 31.616C146.653 30.08 149.277 29.312 152.221 29.312C153.842 29.312 155.314 29.5467 156.637 30.016C158.002 30.4853 159.197 31.1467 160.221 32C161.245 32.8107 162.119 33.7707 162.845 34.88C163.57 35.9467 164.103 37.0987 164.445 38.336L162.333 38.08V30.016H172.509V64H162.141V55.808L164.445 55.744C164.103 56.9387 163.549 58.0693 162.781 59.136C162.013 60.2027 161.074 61.1413 159.965 61.952C158.855 62.7627 157.618 63.4027 156.253 63.872C154.887 64.3413 153.437 64.576 151.901 64.576ZM154.717 55.936C156.295 55.936 157.661 55.5733 158.813 54.848C159.965 54.1227 160.861 53.0987 161.501 51.776C162.141 50.4107 162.461 48.8107 162.461 46.976C162.461 45.1413 162.141 43.5627 161.501 42.24C160.861 40.8747 159.965 39.8293 158.813 39.104C157.661 38.336 156.295 37.952 154.717 37.952C153.181 37.952 151.837 38.336 150.685 39.104C149.575 39.8293 148.701 40.8747 148.061 42.24C147.421 43.5627 147.101 45.1413 147.101 46.976C147.101 48.8107 147.421 50.4107 148.061 51.776C148.701 53.0987 149.575 54.1227 150.685 54.848C151.837 55.5733 153.181 55.936 154.717 55.936ZM196.456 64.64C193.171 64.64 190.227 63.872 187.624 62.336C185.021 60.8 182.952 58.7093 181.416 56.064C179.923 53.376 179.176 50.3467 179.176 46.976C179.176 43.6053 179.923 40.5973 181.416 37.952C182.952 35.264 185.021 33.152 187.624 31.616C190.227 30.08 193.171 29.312 196.456 29.312C199.485 29.312 202.259 29.8453 204.776 30.912C207.336 31.9787 209.363 33.472 210.856 35.392L205.288 42.048C204.691 41.3653 203.987 40.7253 203.176 40.128C202.365 39.5307 201.469 39.0613 200.488 38.72C199.507 38.3787 198.483 38.208 197.416 38.208C195.795 38.208 194.365 38.592 193.128 39.36C191.891 40.0853 190.931 41.1093 190.248 42.432C189.565 43.7547 189.224 45.2693 189.224 46.976C189.224 48.5973 189.565 50.0693 190.248 51.392C190.973 52.7147 191.955 53.76 193.192 54.528C194.429 55.296 195.837 55.68 197.416 55.68C198.525 55.68 199.549 55.552 200.488 55.296C201.427 54.9973 202.28 54.5707 203.048 54.016C203.859 53.4613 204.605 52.7787 205.288 51.968L210.792 58.688C209.341 60.5227 207.315 61.9733 204.712 63.04C202.152 64.1067 199.4 64.64 196.456 64.64ZM226.275 54.016L222.499 46.336L238.371 30.016H251.875L226.275 54.016ZM216.419 64V16.64H226.659V64H216.419ZM239.459 64L227.491 48.512L234.723 42.88L251.555 64H239.459Z" fill="black"/>
<rect y="13" width="75" height="64" rx="6" fill="black"/>
<path d="M30.912 54.24C29.568 54.24 28.352 54.024 27.264 53.592C26.176 53.16 25.24 52.552 24.456 51.768C23.672 50.984 23.072 50.064 22.656 49.008C22.24 47.936 22.032 46.776 22.032 45.528C22.032 44.28 22.248 43.136 22.68 42.096C23.128 41.04 23.76 40.12 24.576 39.336C25.392 38.552 26.352 37.944 27.456 37.512C28.576 37.08 29.792 36.864 31.104 36.864C32.032 36.864 32.904 36.984 33.72 37.224C34.552 37.464 35.304 37.792 35.976 38.208C36.648 38.624 37.216 39.104 37.68 39.648L35.208 42.264C34.808 41.88 34.392 41.56 33.96 41.304C33.544 41.048 33.096 40.848 32.616 40.704C32.136 40.544 31.624 40.464 31.08 40.464C30.376 40.464 29.728 40.592 29.136 40.848C28.56 41.104 28.048 41.464 27.6 41.928C27.168 42.376 26.832 42.912 26.592 43.536C26.352 44.144 26.232 44.808 26.232 45.528C26.232 46.248 26.36 46.92 26.616 47.544C26.872 48.168 27.224 48.712 27.672 49.176C28.12 49.624 28.648 49.984 29.256 50.256C29.88 50.512 30.544 50.64 31.248 50.64C31.744 50.64 32.208 50.56 32.64 50.4C33.088 50.24 33.472 50.024 33.792 49.752C34.112 49.48 34.368 49.16 34.56 48.792C34.752 48.408 34.848 48 34.848 47.568V46.944L35.376 47.76H30.744V44.568H38.64C38.672 44.744 38.696 44.984 38.712 45.288C38.728 45.592 38.736 45.888 38.736 46.176C38.752 46.464 38.76 46.68 38.76 46.824C38.76 47.912 38.56 48.912 38.16 49.824C37.776 50.72 37.232 51.496 36.528 52.152C35.824 52.808 34.992 53.32 34.032 53.688C33.072 54.056 32.032 54.24 30.912 54.24ZM49.5414 54.24C48.2614 54.24 47.0934 54.024 46.0374 53.592C44.9814 53.16 44.0614 52.552 43.2774 51.768C42.4934 50.984 41.8854 50.064 41.4534 49.008C41.0214 47.952 40.8054 46.792 40.8054 45.528C40.8054 44.264 41.0214 43.104 41.4534 42.048C41.8854 40.992 42.4934 40.072 43.2774 39.288C44.0614 38.504 44.9814 37.896 46.0374 37.464C47.0934 37.032 48.2534 36.816 49.5174 36.816C50.7814 36.816 51.9414 37.032 52.9974 37.464C54.0534 37.896 54.9734 38.504 55.7574 39.288C56.5414 40.072 57.1414 40.992 57.5574 42.048C57.9894 43.104 58.2054 44.264 58.2054 45.528C58.2054 46.776 57.9894 47.936 57.5574 49.008C57.1414 50.064 56.5414 50.984 55.7574 51.768C54.9734 52.552 54.0534 53.16 52.9974 53.592C51.9414 54.024 50.7894 54.24 49.5414 54.24ZM49.5174 50.4C50.1734 50.4 50.7734 50.28 51.3174 50.04C51.8774 49.8 52.3574 49.464 52.7574 49.032C53.1734 48.584 53.4934 48.064 53.7174 47.472C53.9414 46.88 54.0534 46.232 54.0534 45.528C54.0534 44.824 53.9414 44.176 53.7174 43.584C53.4934 42.992 53.1734 42.48 52.7574 42.048C52.3574 41.6 51.8774 41.256 51.3174 41.016C50.7734 40.776 50.1734 40.656 49.5174 40.656C48.8614 40.656 48.2534 40.776 47.6934 41.016C47.1494 41.256 46.6694 41.6 46.2534 42.048C45.8374 42.48 45.5174 42.992 45.2934 43.584C45.0854 44.176 44.9814 44.824 44.9814 45.528C44.9814 46.232 45.0854 46.888 45.2934 47.496C45.5174 48.088 45.8374 48.6 46.2534 49.032C46.6694 49.464 47.1494 49.8 47.6934 50.04C48.2534 50.28 48.8614 50.4 49.5174 50.4Z" fill="white"/>
</svg>
